<svg width="34" height="30" viewBox="0 0 34 30" fill="none" xmlns="http://www.w3.org/2000/svg">
<path d="M31.6667 6.66667H21.6667C21.2246 6.66667 20.8007 6.84226 20.4882 7.15482C20.1756 7.46738 20 7.89131 20 8.33333V13.3333H16.6667V1.66667C16.6667 1.22464 16.4911 0.800716 16.1785 0.488155C15.866 0.175595 15.442 0 15 0H1.66667C1.22464 0 0.800716 0.175595 0.488155 0.488155C0.175595 0.800716 0 1.22464 0 1.66667V28.3333C0 28.7754 0.175595 29.1993 0.488155 29.5118C0.800716 29.8244 1.22464 30 1.66667 30H31.6667C32.1087 30 32.5326 29.8244 32.8452 29.5118C33.1577 29.1993 33.3333 28.7754 33.3333 28.3333V8.33333C33.3333 7.89131 33.1577 7.46738 32.8452 7.15482C32.5326 6.84226 32.1087 6.66667 31.6667 6.66667ZM10 5H13.3333V8.33333H10V5ZM6.66667 21.6667H3.33333V18.3333H6.66667V21.6667ZM6.66667 15H3.33333V11.6667H6.66667V15ZM6.66667 8.33333H3.33333V5H6.66667V8.33333ZM13.3333 21.6667H10V18.3333H13.3333V21.6667ZM13.3333 15H10V11.6667H13.3333V15ZM28.3333 21.6667H25V18.3333H28.3333V21.6667ZM28.3333 15H25V11.6667H28.3333V15Z" fill="white"/>
</svg>
