<svg width="97" height="97" viewBox="0 0 97 97" fill="none" xmlns="http://www.w3.org/2000/svg">
<circle cx="48.5" cy="48.5" r="48.5" fill="#FF2D59"/>
<path d="M47.8117 40.6649H41.3367C40.6524 40.6647 39.9847 40.8751 39.4242 41.2675C38.8636 41.6599 38.4374 42.2153 38.2034 42.8583L31.9367 60.0949C31.715 60.7033 31.8667 61.3849 32.3234 61.8433L32.8117 62.3316L43.515 51.6283C43.5134 51.5849 43.5017 51.5416 43.5017 51.4983C43.5017 51.0038 43.6483 50.5205 43.923 50.1094C44.1977 49.6982 44.5882 49.3778 45.045 49.1886C45.5018 48.9994 46.0045 48.9499 46.4894 49.0463C46.9744 49.1428 47.4198 49.3809 47.7695 49.7305C48.1191 50.0801 48.3572 50.5256 48.4537 51.0106C48.5501 51.4955 48.5006 51.9982 48.3114 52.455C48.1222 52.9118 47.8017 53.3022 47.3906 53.5769C46.9795 53.8517 46.4962 53.9983 46.0017 53.9983C45.9584 53.9983 45.915 53.9866 45.8717 53.9849L35.1684 64.6883L35.6567 65.1766C35.8808 65.4013 36.1645 65.5571 36.4743 65.6256C36.7841 65.6941 37.1071 65.6725 37.405 65.5633L54.6417 59.2949C55.2847 59.0609 55.8401 58.6347 56.2325 58.0742C56.6249 57.5136 56.8352 56.8459 56.835 56.1616V49.6866L60.1667 46.3566L51.1434 37.3333L47.8117 40.6649ZM61.7334 44.1016L53.4 35.7683L56.9334 32.2333L65.2667 40.5666L61.7334 44.1016Z" fill="white"/>
</svg>
