<svg width="1120" height="340" viewBox="0 0 1120 340" fill="none" xmlns="http://www.w3.org/2000/svg">
<rect width="1120" height="340" rx="20" fill="#FFCC00"/>
<path d="M494.904 127.728H490.248L489.448 130H487.544L491.528 118.864H493.64L497.624 130H495.704L494.904 127.728ZM494.392 126.24L492.584 121.072L490.76 126.24H494.392ZM501.18 122.464C501.447 122.016 501.799 121.669 502.236 121.424C502.684 121.168 503.212 121.04 503.82 121.04V122.928H503.356C502.642 122.928 502.098 123.109 501.724 123.472C501.362 123.835 501.18 124.464 501.18 125.36V130H499.356V121.184H501.18V122.464ZM513.577 125.376C513.577 125.707 513.556 126.005 513.513 126.272H506.777C506.83 126.976 507.092 127.541 507.561 127.968C508.03 128.395 508.606 128.608 509.289 128.608C510.27 128.608 510.964 128.197 511.369 127.376H513.337C513.07 128.187 512.585 128.853 511.881 129.376C511.188 129.888 510.324 130.144 509.289 130.144C508.446 130.144 507.689 129.957 507.017 129.584C506.356 129.2 505.833 128.667 505.449 127.984C505.076 127.291 504.889 126.491 504.889 125.584C504.889 124.677 505.07 123.883 505.433 123.2C505.806 122.507 506.324 121.973 506.985 121.6C507.657 121.227 508.425 121.04 509.289 121.04C510.121 121.04 510.862 121.221 511.513 121.584C512.164 121.947 512.67 122.459 513.033 123.12C513.396 123.771 513.577 124.523 513.577 125.376ZM511.673 124.8C511.662 124.128 511.422 123.589 510.953 123.184C510.484 122.779 509.902 122.576 509.209 122.576C508.58 122.576 508.041 122.779 507.593 123.184C507.145 123.579 506.878 124.117 506.793 124.8H511.673ZM527.768 118.88L524.088 125.968V130H522.264V125.968L518.568 118.88H520.6L523.176 124.336L525.752 118.88H527.768ZM533.04 130.144C532.208 130.144 531.456 129.957 530.784 129.584C530.112 129.2 529.584 128.667 529.2 127.984C528.816 127.291 528.624 126.491 528.624 125.584C528.624 124.688 528.821 123.893 529.216 123.2C529.61 122.507 530.149 121.973 530.832 121.6C531.514 121.227 532.277 121.04 533.12 121.04C533.962 121.04 534.725 121.227 535.408 121.6C536.09 121.973 536.629 122.507 537.024 123.2C537.418 123.893 537.616 124.688 537.616 125.584C537.616 126.48 537.413 127.275 537.008 127.968C536.602 128.661 536.048 129.2 535.344 129.584C534.65 129.957 533.882 130.144 533.04 130.144ZM533.04 128.56C533.509 128.56 533.946 128.448 534.352 128.224C534.768 128 535.104 127.664 535.36 127.216C535.616 126.768 535.744 126.224 535.744 125.584C535.744 124.944 535.621 124.405 535.376 123.968C535.13 123.52 534.805 123.184 534.4 122.96C533.994 122.736 533.557 122.624 533.088 122.624C532.618 122.624 532.181 122.736 531.776 122.96C531.381 123.184 531.066 123.52 530.832 123.968C530.597 124.405 530.48 124.944 530.48 125.584C530.48 126.533 530.72 127.269 531.2 127.792C531.69 128.304 532.304 128.56 533.04 128.56ZM547.403 121.184V130H545.579V128.96C545.291 129.323 544.912 129.611 544.443 129.824C543.984 130.027 543.493 130.128 542.971 130.128C542.277 130.128 541.653 129.984 541.099 129.696C540.555 129.408 540.123 128.981 539.803 128.416C539.493 127.851 539.339 127.168 539.339 126.368V121.184H541.147V126.096C541.147 126.885 541.344 127.493 541.739 127.92C542.133 128.336 542.672 128.544 543.355 128.544C544.037 128.544 544.576 128.336 544.971 127.92C545.376 127.493 545.579 126.885 545.579 126.096V121.184H547.403ZM559.742 130L557.182 125.552H555.79V130H553.966V118.88H557.806C558.659 118.88 559.379 119.029 559.966 119.328C560.563 119.627 561.006 120.027 561.294 120.528C561.592 121.029 561.742 121.589 561.742 122.208C561.742 122.933 561.528 123.595 561.102 124.192C560.686 124.779 560.04 125.179 559.166 125.392L561.918 130H559.742ZM555.79 124.096H557.806C558.488 124.096 559 123.925 559.342 123.584C559.694 123.243 559.87 122.784 559.87 122.208C559.87 121.632 559.699 121.184 559.358 120.864C559.016 120.533 558.499 120.368 557.806 120.368H555.79V124.096ZM572.155 125.376C572.155 125.707 572.134 126.005 572.091 126.272H565.355C565.408 126.976 565.67 127.541 566.139 127.968C566.608 128.395 567.184 128.608 567.867 128.608C568.848 128.608 569.542 128.197 569.947 127.376H571.915C571.648 128.187 571.163 128.853 570.459 129.376C569.766 129.888 568.902 130.144 567.867 130.144C567.024 130.144 566.267 129.957 565.595 129.584C564.934 129.2 564.411 128.667 564.027 127.984C563.654 127.291 563.467 126.491 563.467 125.584C563.467 124.677 563.648 123.883 564.011 123.2C564.384 122.507 564.902 121.973 565.563 121.6C566.235 121.227 567.003 121.04 567.867 121.04C568.699 121.04 569.44 121.221 570.091 121.584C570.742 121.947 571.248 122.459 571.611 123.12C571.974 123.771 572.155 124.523 572.155 125.376ZM570.251 124.8C570.24 124.128 570 123.589 569.531 123.184C569.062 122.779 568.48 122.576 567.787 122.576C567.158 122.576 566.619 122.779 566.171 123.184C565.723 123.579 565.456 124.117 565.371 124.8H570.251ZM573.342 125.552C573.342 124.667 573.523 123.883 573.886 123.2C574.259 122.517 574.761 121.989 575.39 121.616C576.03 121.232 576.734 121.04 577.502 121.04C578.195 121.04 578.798 121.179 579.31 121.456C579.833 121.723 580.249 122.059 580.558 122.464V121.184H582.398V130H580.558V128.688C580.249 129.104 579.827 129.451 579.294 129.728C578.761 130.005 578.153 130.144 577.47 130.144C576.713 130.144 576.019 129.952 575.39 129.568C574.761 129.173 574.259 128.629 573.886 127.936C573.523 127.232 573.342 126.437 573.342 125.552ZM580.558 125.584C580.558 124.976 580.43 124.448 580.174 124C579.929 123.552 579.603 123.211 579.198 122.976C578.793 122.741 578.355 122.624 577.886 122.624C577.417 122.624 576.979 122.741 576.574 122.976C576.169 123.2 575.838 123.536 575.582 123.984C575.337 124.421 575.214 124.944 575.214 125.552C575.214 126.16 575.337 126.693 575.582 127.152C575.838 127.611 576.169 127.963 576.574 128.208C576.99 128.443 577.427 128.56 577.886 128.56C578.355 128.56 578.793 128.443 579.198 128.208C579.603 127.973 579.929 127.632 580.174 127.184C580.43 126.725 580.558 126.192 580.558 125.584ZM584.186 125.552C584.186 124.667 584.367 123.883 584.73 123.2C585.103 122.517 585.604 121.989 586.234 121.616C586.874 121.232 587.583 121.04 588.362 121.04C588.938 121.04 589.503 121.168 590.058 121.424C590.623 121.669 591.071 122 591.402 122.416V118.16H593.242V130H591.402V128.672C591.103 129.099 590.687 129.451 590.154 129.728C589.631 130.005 589.028 130.144 588.346 130.144C587.578 130.144 586.874 129.952 586.234 129.568C585.604 129.173 585.103 128.629 584.73 127.936C584.367 127.232 584.186 126.437 584.186 125.552ZM591.402 125.584C591.402 124.976 591.274 124.448 591.018 124C590.772 123.552 590.447 123.211 590.042 122.976C589.636 122.741 589.199 122.624 588.73 122.624C588.26 122.624 587.823 122.741 587.418 122.976C587.012 123.2 586.682 123.536 586.426 123.984C586.18 124.421 586.058 124.944 586.058 125.552C586.058 126.16 586.18 126.693 586.426 127.152C586.682 127.611 587.012 127.963 587.418 128.208C587.834 128.443 588.271 128.56 588.73 128.56C589.199 128.56 589.636 128.443 590.042 128.208C590.447 127.973 590.772 127.632 591.018 127.184C591.274 126.725 591.402 126.192 591.402 125.584ZM603.574 121.184L598.166 134.144H596.278L598.07 129.856L594.598 121.184H596.63L599.11 127.904L601.686 121.184H603.574ZM615.65 118.88V120.368H610.93V123.648H614.61V125.136H610.93V130H609.106V118.88H615.65ZM621.165 130.144C620.333 130.144 619.581 129.957 618.909 129.584C618.237 129.2 617.709 128.667 617.325 127.984C616.941 127.291 616.749 126.491 616.749 125.584C616.749 124.688 616.946 123.893 617.341 123.2C617.735 122.507 618.274 121.973 618.957 121.6C619.639 121.227 620.402 121.04 621.245 121.04C622.087 121.04 622.85 121.227 623.533 121.6C624.215 121.973 624.754 122.507 625.149 123.2C625.543 123.893 625.741 124.688 625.741 125.584C625.741 126.48 625.538 127.275 625.133 127.968C624.727 128.661 624.173 129.2 623.469 129.584C622.775 129.957 622.007 130.144 621.165 130.144ZM621.165 128.56C621.634 128.56 622.071 128.448 622.477 128.224C622.893 128 623.229 127.664 623.485 127.216C623.741 126.768 623.869 126.224 623.869 125.584C623.869 124.944 623.746 124.405 623.501 123.968C623.255 123.52 622.93 123.184 622.525 122.96C622.119 122.736 621.682 122.624 621.213 122.624C620.743 122.624 620.306 122.736 619.901 122.96C619.506 123.184 619.191 123.52 618.957 123.968C618.722 124.405 618.605 124.944 618.605 125.584C618.605 126.533 618.845 127.269 619.325 127.792C619.815 128.304 620.429 128.56 621.165 128.56ZM629.368 122.464C629.634 122.016 629.986 121.669 630.424 121.424C630.872 121.168 631.4 121.04 632.008 121.04V122.928H631.544C630.829 122.928 630.285 123.109 629.912 123.472C629.549 123.835 629.368 124.464 629.368 125.36V130H627.544V121.184H629.368V122.464Z" fill="white"/>
<path d="M372.02 195.294C369.976 195.294 368.128 194.944 366.476 194.244C364.852 193.544 363.564 192.536 362.612 191.22C361.66 189.904 361.17 188.35 361.142 186.558H367.442C367.526 187.762 367.946 188.714 368.702 189.414C369.486 190.114 370.55 190.464 371.894 190.464C373.266 190.464 374.344 190.142 375.128 189.498C375.912 188.826 376.304 187.958 376.304 186.894C376.304 186.026 376.038 185.312 375.506 184.752C374.974 184.192 374.302 183.758 373.49 183.45C372.706 183.114 371.614 182.75 370.214 182.358C368.31 181.798 366.756 181.252 365.552 180.72C364.376 180.16 363.354 179.334 362.486 178.242C361.646 177.122 361.226 175.638 361.226 173.79C361.226 172.054 361.66 170.542 362.528 169.254C363.396 167.966 364.614 166.986 366.182 166.314C367.75 165.614 369.542 165.264 371.558 165.264C374.582 165.264 377.032 166.006 378.908 167.49C380.812 168.946 381.862 170.99 382.058 173.622H375.59C375.534 172.614 375.1 171.788 374.288 171.144C373.504 170.472 372.454 170.136 371.138 170.136C369.99 170.136 369.066 170.43 368.366 171.018C367.694 171.606 367.358 172.46 367.358 173.58C367.358 174.364 367.61 175.022 368.114 175.554C368.646 176.058 369.29 176.478 370.046 176.814C370.83 177.122 371.922 177.486 373.322 177.906C375.226 178.466 376.78 179.026 377.984 179.586C379.188 180.146 380.224 180.986 381.092 182.106C381.96 183.226 382.394 184.696 382.394 186.516C382.394 188.084 381.988 189.54 381.176 190.884C380.364 192.228 379.174 193.306 377.606 194.118C376.038 194.902 374.176 195.294 372.02 195.294ZM394.238 176.562V187.818C394.238 188.602 394.42 189.176 394.784 189.54C395.176 189.876 395.82 190.044 396.716 190.044H399.446V195H395.75C390.794 195 388.316 192.592 388.316 187.776V176.562H385.544V171.732H388.316V165.978H394.238V171.732H399.446V176.562H394.238ZM402.063 183.282C402.063 180.93 402.525 178.844 403.449 177.024C404.401 175.204 405.675 173.804 407.271 172.824C408.895 171.844 410.701 171.354 412.689 171.354C414.425 171.354 415.937 171.704 417.225 172.404C418.541 173.104 419.591 173.986 420.375 175.05V171.732H426.297V195H420.375V191.598C419.619 192.69 418.569 193.6 417.225 194.328C415.909 195.028 414.383 195.378 412.647 195.378C410.687 195.378 408.895 194.874 407.271 193.866C405.675 192.858 404.401 191.444 403.449 189.624C402.525 187.776 402.063 185.662 402.063 183.282ZM420.375 183.366C420.375 181.938 420.095 180.72 419.535 179.712C418.975 178.676 418.219 177.892 417.267 177.36C416.315 176.8 415.293 176.52 414.201 176.52C413.109 176.52 412.101 176.786 411.177 177.318C410.253 177.85 409.497 178.634 408.909 179.67C408.349 180.678 408.069 181.882 408.069 183.282C408.069 184.682 408.349 185.914 408.909 186.978C409.497 188.014 410.253 188.812 411.177 189.372C412.129 189.932 413.137 190.212 414.201 190.212C415.293 190.212 416.315 189.946 417.267 189.414C418.219 188.854 418.975 188.07 419.535 187.062C420.095 186.026 420.375 184.794 420.375 183.366ZM437.82 175.344C438.576 174.112 439.556 173.146 440.76 172.446C441.992 171.746 443.392 171.396 444.96 171.396V177.57H443.406C441.558 177.57 440.158 178.004 439.206 178.872C438.282 179.74 437.82 181.252 437.82 183.408V195H431.94V171.732H437.82V175.344ZM455.666 176.562V187.818C455.666 188.602 455.848 189.176 456.212 189.54C456.604 189.876 457.248 190.044 458.144 190.044H460.874V195H457.178C452.222 195 449.744 192.592 449.744 187.776V176.562H446.972V171.732H449.744V165.978H455.666V171.732H460.874V176.562H455.666ZM473.399 183.282C473.399 180.93 473.861 178.844 474.785 177.024C475.737 175.204 477.011 173.804 478.607 172.824C480.231 171.844 482.037 171.354 484.025 171.354C485.761 171.354 487.273 171.704 488.561 172.404C489.877 173.104 490.927 173.986 491.711 175.05V171.732H497.633V195H491.711V191.598C490.955 192.69 489.905 193.6 488.561 194.328C487.245 195.028 485.719 195.378 483.983 195.378C482.023 195.378 480.231 194.874 478.607 193.866C477.011 192.858 475.737 191.444 474.785 189.624C473.861 187.776 473.399 185.662 473.399 183.282ZM491.711 183.366C491.711 181.938 491.431 180.72 490.871 179.712C490.311 178.676 489.555 177.892 488.603 177.36C487.651 176.8 486.629 176.52 485.537 176.52C484.445 176.52 483.437 176.786 482.513 177.318C481.589 177.85 480.833 178.634 480.245 179.67C479.685 180.678 479.405 181.882 479.405 183.282C479.405 184.682 479.685 185.914 480.245 186.978C480.833 188.014 481.589 188.812 482.513 189.372C483.465 189.932 484.473 190.212 485.537 190.212C486.629 190.212 487.651 189.946 488.603 189.414C489.555 188.854 490.311 188.07 490.871 187.062C491.431 186.026 491.711 184.794 491.711 183.366ZM538.258 195H532.378L519.064 174.882V195H513.184V165.642H519.064L532.378 185.802V165.642H538.258V195ZM565.599 182.862C565.599 183.702 565.543 184.458 565.431 185.13H548.421C548.561 186.81 549.149 188.126 550.185 189.078C551.221 190.03 552.495 190.506 554.007 190.506C556.191 190.506 557.745 189.568 558.669 187.692H565.011C564.339 189.932 563.051 191.78 561.147 193.236C559.243 194.664 556.905 195.378 554.133 195.378C551.893 195.378 549.877 194.888 548.085 193.908C546.321 192.9 544.935 191.486 543.927 189.666C542.947 187.846 542.457 185.746 542.457 183.366C542.457 180.958 542.947 178.844 543.927 177.024C544.907 175.204 546.279 173.804 548.043 172.824C549.807 171.844 551.837 171.354 554.133 171.354C556.345 171.354 558.319 171.83 560.055 172.782C561.819 173.734 563.177 175.092 564.129 176.856C565.109 178.592 565.599 180.594 565.599 182.862ZM559.509 181.182C559.481 179.67 558.935 178.466 557.871 177.57C556.807 176.646 555.505 176.184 553.965 176.184C552.509 176.184 551.277 176.632 550.269 177.528C549.289 178.396 548.687 179.614 548.463 181.182H559.509ZM602.047 171.732L595.243 195H588.901L584.659 178.746L580.417 195H574.033L567.187 171.732H573.151L577.267 189.456L581.719 171.732H587.935L592.303 189.414L596.419 171.732H602.047ZM636.414 174.756C636.414 176.324 636.036 177.794 635.28 179.166C634.552 180.538 633.39 181.644 631.794 182.484C630.226 183.324 628.238 183.744 625.83 183.744H620.916V195H615.036V165.684H625.83C628.098 165.684 630.03 166.076 631.626 166.86C633.222 167.644 634.412 168.722 635.196 170.094C636.008 171.466 636.414 173.02 636.414 174.756ZM625.578 178.998C627.202 178.998 628.406 178.634 629.19 177.906C629.974 177.15 630.366 176.1 630.366 174.756C630.366 171.9 628.77 170.472 625.578 170.472H620.916V178.998H625.578ZM646.369 175.344C647.125 174.112 648.105 173.146 649.309 172.446C650.541 171.746 651.941 171.396 653.509 171.396V177.57H651.955C650.107 177.57 648.707 178.004 647.755 178.872C646.831 179.74 646.369 181.252 646.369 183.408V195H640.489V171.732H646.369V175.344ZM667.701 195.378C665.461 195.378 663.445 194.888 661.653 193.908C659.861 192.9 658.447 191.486 657.411 189.666C656.403 187.846 655.899 185.746 655.899 183.366C655.899 180.986 656.417 178.886 657.453 177.066C658.517 175.246 659.959 173.846 661.779 172.866C663.599 171.858 665.629 171.354 667.869 171.354C670.109 171.354 672.139 171.858 673.959 172.866C675.779 173.846 677.207 175.246 678.243 177.066C679.307 178.886 679.839 180.986 679.839 183.366C679.839 185.746 679.293 187.846 678.201 189.666C677.137 191.486 675.681 192.9 673.833 193.908C672.013 194.888 669.969 195.378 667.701 195.378ZM667.701 190.254C668.765 190.254 669.759 190.002 670.683 189.498C671.635 188.966 672.391 188.182 672.951 187.146C673.511 186.11 673.791 184.85 673.791 183.366C673.791 181.154 673.203 179.46 672.027 178.284C670.879 177.08 669.465 176.478 667.785 176.478C666.105 176.478 664.691 177.08 663.543 178.284C662.423 179.46 661.863 181.154 661.863 183.366C661.863 185.578 662.409 187.286 663.501 188.49C664.621 189.666 666.021 190.254 667.701 190.254ZM687.034 168.96C685.97 168.96 685.088 168.638 684.388 167.994C683.716 167.322 683.38 166.496 683.38 165.516C683.38 164.536 683.716 163.724 684.388 163.08C685.088 162.408 685.97 162.072 687.034 162.072C688.07 162.072 688.924 162.408 689.596 163.08C690.268 163.724 690.604 164.536 690.604 165.516C690.604 166.496 690.268 167.322 689.596 167.994C688.924 168.638 688.07 168.96 687.034 168.96ZM689.932 198.822C689.932 201.398 689.288 203.246 688 204.366C686.74 205.514 684.92 206.088 682.54 206.088H679.936V201.09H681.616C682.512 201.09 683.142 200.908 683.506 200.544C683.87 200.208 684.052 199.648 684.052 198.864V171.732H689.932V198.822ZM717.272 182.862C717.272 183.702 717.216 184.458 717.104 185.13H700.094C700.234 186.81 700.822 188.126 701.858 189.078C702.894 190.03 704.168 190.506 705.68 190.506C707.864 190.506 709.418 189.568 710.342 187.692H716.684C716.012 189.932 714.724 191.78 712.82 193.236C710.916 194.664 708.578 195.378 705.806 195.378C703.566 195.378 701.55 194.888 699.758 193.908C697.994 192.9 696.608 191.486 695.6 189.666C694.62 187.846 694.13 185.746 694.13 183.366C694.13 180.958 694.62 178.844 695.6 177.024C696.58 175.204 697.952 173.804 699.716 172.824C701.48 171.844 703.51 171.354 705.806 171.354C708.018 171.354 709.992 171.83 711.728 172.782C713.492 173.734 714.85 175.092 715.802 176.856C716.782 178.592 717.272 180.594 717.272 182.862ZM711.182 181.182C711.154 179.67 710.608 178.466 709.544 177.57C708.48 176.646 707.178 176.184 705.638 176.184C704.182 176.184 702.95 176.632 701.942 177.528C700.962 178.396 700.36 179.614 700.136 181.182H711.182ZM719.952 183.366C719.952 180.958 720.442 178.858 721.422 177.066C722.402 175.246 723.76 173.846 725.496 172.866C727.232 171.858 729.22 171.354 731.46 171.354C734.344 171.354 736.724 172.082 738.6 173.538C740.504 174.966 741.778 176.982 742.422 179.586H736.08C735.744 178.578 735.17 177.794 734.358 177.234C733.574 176.646 732.594 176.352 731.418 176.352C729.738 176.352 728.408 176.968 727.428 178.2C726.448 179.404 725.958 181.126 725.958 183.366C725.958 185.578 726.448 187.3 727.428 188.532C728.408 189.736 729.738 190.338 731.418 190.338C733.798 190.338 735.352 189.274 736.08 187.146H742.422C741.778 189.666 740.504 191.668 738.6 193.152C736.696 194.636 734.316 195.378 731.46 195.378C729.22 195.378 727.232 194.888 725.496 193.908C723.76 192.9 722.402 191.5 721.422 189.708C720.442 187.888 719.952 185.774 719.952 183.366ZM753.475 176.562V187.818C753.475 188.602 753.657 189.176 754.021 189.54C754.413 189.876 755.057 190.044 755.953 190.044H758.683V195H754.987C750.031 195 747.553 192.592 747.553 187.776V176.562H744.781V171.732H747.553V165.978H753.475V171.732H758.683V176.562H753.475Z" fill="white"/>
</svg>
